<svg xmlns="http://www.w3.org/2000/svg" fill="none" viewBox="0 0 24 24" height="24" width="24">
  <g id="Energy-Program-Saving">
    <path id="Union" fill="#000000" d="M11.3691 1.22486c0.3928 -0.320346 0.9718 -0.297752 1.3379 0.06836l2.7071 2.70703H19c0.5522 0.00004 1 0.44774 1 1v3.58594l2.707 2.70701c0.3904 0.3905 0.3905 1.0236 0 1.4141L20 15.4143v3.5859c-0.0001 0.5522 -0.4478 1 -1 1h-3.5859l-2.7071 2.7071c-0.3904 0.3904 -1.0235 0.3903 -1.414 0l-2.70705 -2.7071H5.00001c-0.55221 0 -0.99987 -0.4478 -1 -1v-3.5859l-2.70703 -2.707c-0.390503 -0.3905 -0.39045 -1.0236 0 -1.4141l2.70703 -2.70701V5.00025c0 -0.55228 0.44772 -1 1 -1h3.58594L11.293 1.29322zM9.41407 6.00025H6.00001v3.41407L3.41407 12.0002l2.58594 2.586v3.414h3.41406L12 20.5862l2.5859 -2.586H18v-3.414l2.5859 -2.586L18 9.41432V6.00025h-3.4141L12 3.41432zm5.05863 1.87012c0.2169 0.00737 0.3952 0.01864 0.5205 0.02832 0.0623 0.00482 0.1131 0.00932 0.1484 0.0127 0.0171 0.00163 0.0318 0.00285 0.042 0.0039 0.0047 0.00051 0.0095 0.00156 0.0127 0.00196h0.0058c-0.001 0.01089 -0.0114 0.10505 -0.0996 0.88964l0.1006 -0.88867 0.793 0.08887 0.0889 0.79297v0.00293c0.0002 0.00102 0.0008 0.00278 0.0009 0.0039 0.0003 0.00318 0.0005 0.00809 0.001 0.0127 0.0011 0.01024 0.0023 0.0249 0.0039 0.04199 0.0034 0.03537 0.0079 0.08623 0.0127 0.14844 0.0097 0.12525 0.021 0.30309 0.0283 0.51953 0.0147 0.43279 0.0145 1.03335 -0.0478 1.69825 -0.1196 1.2735 -0.4864 3.0322 -1.6543 4.2002 -1.1448 1.1441 -2.7929 1.4764 -4.2315 1 -0.0006 -0.0381 -0.0019 -0.077 -0.0019 -0.1153 0.0002 -2.0698 0.974 -3.9124 2.4873 -5.0957 -1.993 0.6041 -3.55001 2.2117 -4.083 4.2344 -0.00818 -0.008 -0.01728 -0.0153 -0.02539 -0.0234 -1.61651 -1.6166 -1.6161 -4.2386 0 -5.85548l0.22558 -0.20996C9.96087 8.35973 11.5806 8.0313 12.7744 7.9192c0.665 -0.06239 1.2654 -0.06349 1.6983 -0.04883" stroke-width="1"></path>
  </g>
</svg>